<svg width="132" height="33" viewBox="0 0 132 33" fill="none" xmlns="http://www.w3.org/2000/svg">
<path d="M20.3018 3.96875L2.09766 24.3712" stroke="white" stroke-width="0.931344"/>
<path d="M40.2596 8.26562L2.09766 24.3702" stroke="white" stroke-width="0.931344"/>
<path d="M20.5721 29.5322L2.04688 24.3945" stroke="white" stroke-width="0.931344"/>
<path d="M20.8004 3.76953L14.8477 19.2566" stroke="white" stroke-width="0.931344"/>
<path d="M21.4857 29.1363L14.9648 19.0586" stroke="white" stroke-width="0.931344"/>
<path d="M20.75 3.10547L40.3127 6.81052" stroke="white" stroke-width="0.931344"/>
<path d="M20.6992 2.88086L38.7552 17.3058" stroke="white" stroke-width="0.931344"/>
<path d="M41.6464 9.72266L38.707 17.3798" stroke="white" stroke-width="0.931344"/>
<path d="M21.0195 2.70898L22.0075 30.1757" stroke="white" stroke-width="0.931344"/>
<path d="M40.9801 8.98438L21.8867 30.1031" stroke="white" stroke-width="0.931344"/>
<path d="M37.4675 18.2949L22.7461 29.3854" stroke="white" stroke-width="0.931344"/>
<circle cx="42.8559" cy="7.22894" r="3.82855" fill="#FFC107"/>
<circle cx="21.974" cy="29.4466" r="2.85289" fill="#2196F4"/>
<circle cx="21.0586" cy="3.01755" r="2.06248" fill="#F34335"/>
<circle cx="14.8789" cy="18.9492" r="2.06248" fill="#9C27AF"/>
<circle cx="2.06248" cy="24.457" r="2.06248" fill="#F34335"/>
<circle cx="38.7461" cy="17.6406" r="2.06248" fill="#8BC349"/>
<path d="M55.5242 5.14637V14.9395H57.8013V8.7367L60.0785 13.9615H61.7549L64.032 8.7367L64.046 14.9395H66.3092V5.14637H63.5151L60.9167 10.8602L58.3182 5.14637H55.5242ZM68.2119 5.14637V14.9395H76.0771V12.8998H70.7685V11.0557L75.4345 11.0418V9.01611H70.7685V7.18602H75.9374V5.14637H68.2119ZM84.3866 8.16393L85.3506 6.13825C84.3308 5.48166 82.8779 5.03461 81.4389 5.03461C79.078 5.03461 77.5273 6.19413 77.5273 8.02423C77.5273 11.4888 82.6823 10.483 82.6823 12.1454C82.6823 12.6623 82.2073 12.9417 81.4529 12.9417C80.4331 12.9417 78.9103 12.327 77.9045 11.4609L76.9126 13.4586C78.0861 14.4226 79.7905 15.0233 81.425 15.0233C83.6043 15.0233 85.3646 14.0035 85.3646 12.0057C85.3646 8.48524 80.2096 9.40727 80.2096 7.78673C80.2096 7.33969 80.6147 7.11617 81.2294 7.11617C82.0397 7.11617 83.3529 7.57718 84.3866 8.16393ZM91.3366 5.07652C88.3051 5.07652 86.0419 7.18602 86.0419 10.0359C86.0419 12.8998 88.3051 15.0512 91.3366 15.0512C94.3681 15.0512 96.6313 12.8998 96.6313 10.0359C96.6313 7.19999 94.3681 5.07652 91.3366 5.07652ZM91.3645 7.25587C92.8314 7.25587 94.0049 8.4573 94.0049 10.0499C94.0049 11.6425 92.8314 12.8719 91.3645 12.8719C89.9116 12.8719 88.6683 11.6425 88.6683 10.0499C88.6683 8.4573 89.8977 7.25587 91.3645 7.25587ZM97.8985 5.14637V14.9395H100.287V9.07199L104.73 14.9395H106.965V5.14637H104.59V11.0418L100.148 5.14637H97.8985ZM109.635 12.6344C108.937 12.6344 108.448 13.1233 108.448 13.8358C108.448 14.5483 108.937 15.0512 109.635 15.0512C110.334 15.0512 110.837 14.5483 110.837 13.8358C110.837 13.1233 110.334 12.6344 109.635 12.6344ZM55.5242 20.1464V29.9395H57.9131V24.072L62.3556 29.9395H64.5908V20.1464H62.2159V26.0418L57.7734 20.1464H55.5242ZM66.5066 20.1464V29.9395H74.3718V27.8998H69.0631V26.0557L73.7292 26.0418V24.0161H69.0631V22.186H74.2321V20.1464H66.5066ZM75.0815 20.1464V22.2559H77.9873V29.9395H80.5439V22.2559H83.4776V20.1464H75.0815ZM83.5371 20.1464L86.7502 29.9395H89.3766L91.1927 23.3316L92.953 29.9395H95.5933L98.8204 20.1464H96.194L94.35 27.2292L92.492 20.1464H89.9913L88.1472 27.2292L86.2892 20.1464H83.5371ZM104.311 20.0765C101.279 20.0765 99.0161 22.186 99.0161 25.0359C99.0161 27.8998 101.279 30.0512 104.311 30.0512C107.342 30.0512 109.606 27.8998 109.606 25.0359C109.606 22.2 107.342 20.0765 104.311 20.0765ZM104.339 22.2559C105.806 22.2559 106.979 23.4573 106.979 25.0499C106.979 26.6425 105.806 27.8719 104.339 27.8719C102.886 27.8719 101.643 26.6425 101.643 25.0499C101.643 23.4573 102.872 22.2559 104.339 22.2559ZM119.646 29.9395L117.606 26.7403C118.738 26.1535 119.353 25.0639 119.353 23.583C119.353 21.4037 117.872 20.1464 115.273 20.1464H110.873V29.9395H113.429V27.2292H115.273H115.329L116.754 29.9395H119.646ZM113.429 22.186H115.287C116.321 22.186 116.922 22.7029 116.922 23.6669C116.922 24.6587 116.321 25.1896 115.287 25.1896H113.429V22.186ZM130.398 29.9395L126.542 24.1977L130.174 20.1464H127.213L123.539 24.2536V20.1464H120.982V29.9395H123.539V27.5506L124.796 26.1535L127.338 29.9395H130.398Z" fill="white"/>
</svg>
